HIERARCHY
ROOT Pelvis
{
	OFFSET 0.000000 0.000000 0.000000
	CHANNELS 6 Xposition Yposition Zposition Xrotation Yrotation Zrotation
	JOINT LeftUpLeg_virtual
	{
		OFFSET 0.000000 0.000000 0.000000
		CHANNELS 3 Xrotation Yrotation Zrotation
		JOINT LeftUpLeg
		{
			OFFSET 18.735201 -5.666702 -4.541200
			CHANNELS 3 Xrotation Yrotation Zrotation
			JOINT LeftLeg
			{
				OFFSET -0.021200 -31.938179 0.493100
				CHANNELS 3 Xrotation Yrotation Zrotation
				JOINT LeftFoot
				{
					OFFSET 0.021200 -31.938179 -4.336299
					CHANNELS 3 Xrotation Yrotation Zrotation
					JOINT LeftToeBase
					{
						OFFSET 0.943001 -26.722000 15.023500
						CHANNELS 3 Xrotation Yrotation Zrotation
						End Site
						{
							OFFSET 0 0 0
						}
					}
				}
			}
		}
	}
	JOINT RightUpLeg_virtual
	{
		OFFSET 0.000000 0.000000 0.000000
		CHANNELS 3 Xrotation Yrotation Zrotation
		JOINT RightUpLeg
		{
			OFFSET -18.735201 -5.666702 -4.541200
			CHANNELS 3 Xrotation Yrotation Zrotation
			JOINT RightLeg
			{
				OFFSET 0.018946 -31.938133 0.493100
				CHANNELS 3 Xrotation Yrotation Zrotation
				JOINT RightFoot
				{
					OFFSET -0.018946 -31.938126 -4.336299
					CHANNELS 3 Xrotation Yrotation Zrotation
					JOINT RightToeBase
					{
						OFFSET -0.943001 -26.722004 15.023500
						CHANNELS 3 Xrotation Yrotation Zrotation
						End Site
						{
							OFFSET 0 0 0
						}
					}
				}
			}
		}
	}
	JOINT Hips_virtual
	{
		OFFSET 0.000000 0.000000 0.000000
		CHANNELS 3 Xrotation Yrotation Zrotation
		JOINT Hips
		{
			OFFSET -0.000000 -0.000000 -0.000000
			CHANNELS 3 Xrotation Yrotation Zrotation
			JOINT Spine
			{
				OFFSET 0.000000 10.199997 -0.299500
				CHANNELS 3 Xrotation Yrotation Zrotation
				JOINT Spine1
				{
					OFFSET 0.000000 11.900002 -1.516600
					CHANNELS 3 Xrotation Yrotation Zrotation
					JOINT Spine2
					{
						OFFSET 0.000000 13.600006 -2.842500
						CHANNELS 3 Xrotation Yrotation Zrotation
						JOINT Neck_virtual
						{
							OFFSET 0.000000 0.000000 0.000000
							CHANNELS 3 Xrotation Yrotation Zrotation
							JOINT Neck
							{
								OFFSET 0.000000 9.624100 -2.890100
								CHANNELS 3 Xrotation Yrotation Zrotation
								JOINT Head
								{
									OFFSET 0.000000 14.068802 -1.351900
									CHANNELS 3 Xrotation Yrotation Zrotation
									End Site
									{
										OFFSET 0 0 0
									}
								}
							}
						}
						JOINT LeftShoulder_virtual
						{
							OFFSET 0.000000 0.000000 0.000000
							CHANNELS 3 Xrotation Yrotation Zrotation
							JOINT LeftShoulder
							{
								OFFSET 15.263000 10.923401 -0.547700
								CHANNELS 3 Xrotation Yrotation Zrotation
								JOINT LeftArm
								{
									OFFSET 25.438599 -2.830597 -13.032500
									CHANNELS 3 Xrotation Yrotation Zrotation
									JOINT LeftForeArm
									{
										OFFSET 29.960503 0.000000 0.000000
										CHANNELS 3 Xrotation Yrotation Zrotation
										JOINT LeftHand
										{
											OFFSET 27.849251 0.000000 0.000000
											CHANNELS 3 Xrotation Yrotation Zrotation
											End Site
											{
												OFFSET 0 0 0
											}
										}
									}
								}
							}
						}
						JOINT RightShoulder_virtual
						{
							OFFSET 0.000000 0.000000 0.000000
							CHANNELS 3 Xrotation Yrotation Zrotation
							JOINT RightShoulder
							{
								OFFSET -15.263000 10.923401 -0.547700
								CHANNELS 3 Xrotation Yrotation Zrotation
								JOINT RightArm
								{
									OFFSET -25.438599 -2.830597 -13.032500
									CHANNELS 3 Xrotation Yrotation Zrotation
									JOINT RightForeArm
									{
										OFFSET -29.960503 0.000000 0.000000
										CHANNELS 3 Xrotation Yrotation Zrotation
										JOINT RightHand
										{
											OFFSET -27.849251 0.000000 0.000000
											CHANNELS 3 Xrotation Yrotation Zrotation
											End Site
											{
												OFFSET 0 0 0
											}
										}
									}
								}
							}
						}
					}
				}
			}
		}
	}
}
MOTION
Frames: 8
Frame Time: 0.03333333
6.736329 62.460136 114.020721 0.000000 0.000000 0.000000 73.186795 -72.837233 84.631774 -34.130537 -21.011861 39.108816 60.727588 -2.676075 -23.598703 6.119774 8.024651 -40.818553 0.000000 0.000000 0.000000 1.912135 -32.306781 -3.285817 -37.053407 -9.987576 -24.827934 75.699888 11.022973 3.928594 3.660981 4.678864 27.351844 0.000000 0.000000 0.000000 7.064611 -33.956149 6.085632 29.835503 -13.814420 10.642226 16.166648 2.372586 -7.827136 6.995588 2.213898 -4.059362 0.000000 0.000000 0.000000 0.149143 5.322846 -1.903890 -1.696350 4.075705 -0.397538 0.000000 0.000000 0.000000 6.101490 1.165252 -1.194416 3.345185 -3.937097 0.657540 -44.765681 -3.180284 -37.013867 -13.829359 -48.889405 -7.444600 0.000000 0.000000 0.000000 5.381585 5.549008 0.463233 2.999908 23.538956 7.075889 -53.893037 -3.230112 22.076107 -29.142607 58.910518 16.861201 0.000000 0.000000 0.000000 
7.042739 62.468201 114.945297 0.000000 0.000000 0.000000 76.592840 -72.750435 88.040722 -33.564287 -21.405181 39.566787 60.820997 -2.802894 -23.753489 6.214833 7.971621 -41.177342 0.000000 0.000000 0.000000 2.442179 -32.505150 -3.335147 -36.404417 -10.094399 -25.078085 74.872493 11.680130 4.337476 3.250276 4.972710 28.418151 0.000000 0.000000 0.000000 6.653943 -34.239506 5.914329 30.332300 -13.847601 10.718297 16.849074 2.353790 -8.233041 7.251279 2.299285 -4.210906 0.000000 0.000000 0.000000 0.135272 5.594768 -1.691041 -1.610219 4.299235 -0.360698 0.000000 0.000000 0.000000 6.321220 1.231465 -0.954393 3.591233 -3.792929 1.245884 -43.744599 -4.560153 -36.999941 -12.667750 -48.680315 -6.976937 0.000000 0.000000 0.000000 5.482640 5.689177 0.684856 3.130084 24.201474 7.729989 -52.167021 -2.838030 23.641105 -28.816462 59.937977 17.309299 0.000000 0.000000 0.000000 
7.248520 62.643467 115.851097 0.000000 0.000000 0.000000 77.556388 -72.413338 89.047826 -33.010612 -21.491286 40.105467 61.043511 -2.853177 -23.866366 6.458623 7.949428 -41.467274 0.000000 0.000000 0.000000 2.781291 -32.625191 -3.363714 -35.945961 -10.160895 -25.266702 73.884554 12.139895 4.644234 2.735356 5.147125 29.151394 0.000000 0.000000 0.000000 6.138198 -34.611184 5.750387 30.334270 -14.213131 10.776695 17.351983 2.326305 -8.582609 7.443415 2.363547 -4.349842 0.000000 0.000000 0.000000 0.144419 5.775010 -1.428823 -1.532018 4.459374 -0.285156 0.000000 0.000000 0.000000 6.515011 1.268444 -0.686872 3.767424 -3.758779 2.000074 -42.810526 -6.121527 -36.743597 -11.588895 -48.900155 -6.422408 0.000000 0.000000 0.000000 5.557334 5.788147 0.903219 3.162101 24.591512 8.436180 -50.470652 -2.531727 25.412668 -28.809974 61.087880 18.138899 0.000000 0.000000 0.000000 
7.393998 62.976833 117.071457 0.000000 0.000000 0.000000 77.281261 -72.054056 88.935162 -32.729638 -21.471156 40.628984 61.350508 -2.819082 -23.916315 6.744983 7.982267 -41.628620 0.000000 0.000000 0.000000 2.938804 -33.153219 -3.571829 -35.676301 -10.235363 -25.639215 72.656281 12.283235 4.852593 2.065895 5.088712 29.434366 0.000000 0.000000 0.000000 5.714087 -35.076436 5.685169 30.156364 -14.754768 10.918177 17.640384 2.276131 -8.798380 7.546805 2.395916 -4.433657 0.000000 0.000000 0.000000 0.184898 5.847265 -1.258696 -1.459010 4.544401 -0.244711 0.000000 0.000000 0.000000 6.540586 1.268894 -0.455797 3.746302 -3.842153 2.649943 -42.545412 -7.422480 -36.659889 -11.073084 -49.539717 -6.203838 0.000000 0.000000 0.000000 5.502674 5.808065 1.061811 3.061690 24.553922 8.950943 -49.158039 -2.418999 26.830238 -29.105851 62.185437 19.081156 0.000000 0.000000 0.000000 
7.498181 63.408195 118.120117 0.000000 0.000000 0.000000 75.946834 -71.722198 87.705182 -32.563586 -21.291026 40.969298 61.762450 -2.806888 -23.948448 7.134504 7.974003 -41.801311 0.000000 0.000000 0.000000 3.323143 -33.704429 -3.327231 -35.287561 -10.460177 -25.682819 71.636151 12.476421 5.096668 1.511492 5.064733 29.824458 0.000000 0.000000 0.000000 5.434306 -35.476030 5.707138 30.002777 -15.210527 11.146989 17.829232 2.247387 -8.906560 7.620147 2.424268 -4.474396 0.000000 0.000000 0.000000 0.265638 5.837854 -1.166562 -1.393676 4.569079 -0.231212 0.000000 0.000000 0.000000 6.476859 1.255798 -0.282646 3.605217 -3.956192 3.123425 -42.457016 -8.427315 -36.779776 -10.839703 -50.322119 -6.193049 0.000000 0.000000 0.000000 5.398581 5.798636 1.155182 2.908176 24.270835 9.256731 -48.134423 -2.432478 27.876183 -29.660769 63.286989 20.110462 0.000000 0.000000 0.000000 
7.599601 63.972675 119.111519 0.000000 0.000000 0.000000 73.284023 -71.451224 85.134592 -32.584353 -20.973580 41.058678 61.949788 -2.689464 -23.915371 7.393999 8.035884 -41.824838 0.000000 0.000000 0.000000 3.787595 -34.127156 -3.031532 -34.764061 -10.700724 -25.671531 70.564194 12.557322 5.277807 0.951801 4.989799 30.032202 0.000000 0.000000 0.000000 5.183276 -35.808517 5.740298 29.676007 -15.661345 11.329823 17.872269 2.258274 -8.944193 7.633524 2.462410 -4.492026 0.000000 0.000000 0.000000 0.371494 5.820067 -1.146139 -1.341697 4.583622 -0.240523 0.000000 0.000000 0.000000 6.378117 1.263775 -0.164797 3.395005 -3.964945 3.454383 -42.374343 -8.993477 -36.843376 -10.715733 -50.823646 -6.193911 0.000000 0.000000 0.000000 5.298745 5.785059 1.201574 2.736853 23.836944 9.465943 -47.279270 -2.509973 28.873860 -30.697578 64.560382 21.569276 0.000000 0.000000 0.000000 
7.619065 64.575974 120.011322 0.000000 0.000000 0.000000 69.584902 -71.375395 81.623124 -33.090313 -20.653551 40.787526 61.748223 -2.452039 -23.863696 7.341777 8.228909 -41.708704 0.000000 0.000000 0.000000 4.214049 -34.753372 -2.807735 -34.251374 -10.977270 -25.724251 69.434009 12.568144 5.375991 0.311612 4.881631 30.056538 0.000000 0.000000 0.000000 4.898410 -36.100941 5.725100 28.982808 -16.144038 11.239339 17.783174 2.276042 -8.938489 7.584900 2.496395 -4.501418 0.000000 0.000000 0.000000 0.511173 5.781024 -1.115903 -1.297608 4.588047 -0.228164 0.000000 0.000000 0.000000 6.273032 1.272140 -0.068907 3.159990 -3.922188 3.771190 -42.244737 -9.323327 -36.798129 -10.621557 -51.116647 -6.130143 0.000000 0.000000 0.000000 5.232944 5.758766 1.244754 2.546643 23.266254 9.766470 -46.402417 -2.746670 29.929305 -32.097576 65.865379 23.424619 0.000000 0.000000 0.000000 
7.609194 65.242653 121.001884 0.000000 0.000000 0.000000 64.904159 -71.137363 76.704985 -33.315402 -19.976297 40.162837 61.499180 -2.116600 -23.781783 7.366923 8.465558 -41.541060 0.000000 0.000000 0.000000 4.591798 -35.513429 -2.588478 -33.757267 -11.311318 -25.781058 68.375685 12.558308 5.412929 -0.300142 4.791521 29.990408 0.000000 0.000000 0.000000 4.552940 -36.332215 5.678262 27.947491 -16.794320 11.122527 17.561965 2.267359 -8.914257 7.470923 2.517987 -4.514247 0.000000 0.000000 0.000000 0.642423 5.755867 -0.988886 -1.279551 4.609199 -0.152275 0.000000 0.000000 0.000000 6.194934 1.282608 0.039032 2.931933 -3.811918 4.190867 -41.888888 -9.448574 -36.346664 -10.363597 -50.990583 -5.790012 0.000000 0.000000 0.000000 5.187883 5.709064 1.283837 2.339743 22.579772 10.096480 -45.640308 -3.128544 30.861544 -33.840889 67.122892 25.567362 0.000000 0.000000 0.000000 
